<svg viewBox="0 0 1200 460" xmlns="http://www.w3.org/2000/svg">
  <defs>
    <style>
      .title { font-family: -apple-system, BlinkMacSystemFont, 'Segoe UI', sans-serif; font-size: 18px; font-weight: 600; fill: #333; }
      .stagename { font-family: -apple-system, BlinkMacSystemFont, 'Segoe UI', sans-serif; font-size: 13px; fill: #fff; font-weight: 600; }
      .stagelabel { font-family: -apple-system, BlinkMacSystemFont, 'Segoe UI', sans-serif; font-size: 10px; fill: #333; }
      .typelabel { font-family: -apple-system, BlinkMacSystemFont, 'Segoe UI', sans-serif; font-size: 9px; fill: #888; font-style: italic; }
      .caption { font-family: -apple-system, BlinkMacSystemFont, 'Segoe UI', sans-serif; font-size: 11px; fill: #666; }
      .checklabel { font-family: -apple-system, BlinkMacSystemFont, 'Segoe UI', sans-serif; font-size: 11px; fill: #666; font-weight: 600; }
      .hashlabel { font-family: monospace; font-size: 10px; fill: #888; }
      .levellabel { font-family: -apple-system, BlinkMacSystemFont, 'Segoe UI', sans-serif; font-size: 11px; fill: #888; font-weight: 500; }
      .timelabel { font-family: -apple-system, BlinkMacSystemFont, 'Segoe UI', sans-serif; font-size: 10px; fill: #999; }
    </style>
    <marker id="arrow" markerWidth="10" markerHeight="7" refX="9" refY="3.5" orient="auto">
      <polygon points="0 0, 10 3.5, 0 7" fill="#888"/>
    </marker>
    <marker id="chainarrow" markerWidth="8" markerHeight="8" refX="7" refY="4" orient="auto">
      <polygon points="0 0, 8 4, 0 8" fill="#aaa"/>
    </marker>
  </defs>
  
  <!-- Title -->
  <text x="600" y="28" text-anchor="middle" class="title">Checkpoint Consensus Protocol</text>
  
  <!-- Timeline -->
  <line x1="100" y1="75" x2="1100" y2="75" stroke="#ddd" stroke-width="2"/>
  <text x="600" y="55" text-anchor="middle" class="timelabel">TIME</text>
  
  <!-- Top level: Checkpoint sequence (centered, N above MERGE) -->
  <g transform="translate(185, 90)">
    <!-- Continuation before -->
    <text x="0" y="40" font-family="Arial, sans-serif" font-size="24" fill="#888">⋯</text>
    
    <!-- Checkpoint N-1 (finalized - rose) -->
    <rect x="40" y="10" width="160" height="70" rx="6" fill="#fff1f2" stroke="#f43f5e" stroke-width="2"/>
    <text x="120" y="30" text-anchor="middle" class="checklabel" fill="#f43f5e">CHECKPOINT N-1</text>
    <text x="120" y="44" text-anchor="middle" class="caption" font-size="9">finalized</text>
    <text x="120" y="58" text-anchor="middle" class="hashlabel">hash: H(C_N-1)</text>
    <text x="120" y="70" text-anchor="middle" class="hashlabel">prev: H(C_N-2)</text>
    
    <!-- Timeline marker for N-1 -->
    <line x1="120" y1="85" x2="120" y2="95" stroke="#ddd" stroke-width="2"/>
    <text x="120" y="80" text-anchor="middle" class="timelabel">Tₙ₋₁</text>
    
    <!-- Chain arrow N-1 → N -->
    <path d="M 200 45 Q 230 45, 230 20 Q 230 5, 260 5 Q 290 5, 290 20 Q 290 45, 320 45" fill="none" stroke="#aaa" stroke-width="1.5" stroke-dasharray="4,2" marker-end="url(#chainarrow)"/>
    
    <!-- Arrow -->
    <line x1="210" y1="45" x2="250" y2="45" stroke="#888" stroke-width="2" marker-end="url(#arrow)"/>
    
    <!-- Checkpoint N (in progress - green) -->
    <rect x="260" y="10" width="160" height="70" rx="6" fill="#e8f5e9" stroke="#4caf50" stroke-width="2.5"/>
    <text x="340" y="30" text-anchor="middle" class="checklabel" fill="#4caf50">CHECKPOINT N</text>
    <text x="340" y="44" text-anchor="middle" class="caption" font-size="9">in progress</text>
    <text x="340" y="58" text-anchor="middle" class="hashlabel">hash: H(C_N)</text>
    <text x="340" y="70" text-anchor="middle" class="hashlabel">prev: H(C_N-1)</text>
    
    <!-- Timeline marker for N -->
    <line x1="340" y1="85" x2="340" y2="95" stroke="#ddd" stroke-width="2"/>
    <text x="340" y="80" text-anchor="middle" class="timelabel">Tₙ</text>
    
    <!-- Chain arrow N → N+1 -->
    <path d="M 420 45 Q 450 45, 450 20 Q 450 5, 480 5 Q 510 5, 510 20 Q 510 45, 540 45" fill="none" stroke="#aaa" stroke-width="1.5" stroke-dasharray="4,2" marker-end="url(#chainarrow)"/>
    
    <!-- Arrow -->
    <line x1="430" y1="45" x2="470" y2="45" stroke="#888" stroke-width="2" marker-end="url(#arrow)"/>
    
    <!-- Checkpoint N+1 (pending - blue) -->
    <rect x="480" y="10" width="160" height="70" rx="6" fill="#f0f7ff" stroke="#4a90d9" stroke-width="2"/>
    <text x="560" y="30" text-anchor="middle" class="checklabel" fill="#4a90d9">CHECKPOINT N+1</text>
    <text x="560" y="44" text-anchor="middle" class="caption" font-size="9">pending</text>
    <text x="560" y="58" text-anchor="middle" class="hashlabel">hash: H(C_N+1)</text>
    <text x="560" y="70" text-anchor="middle" class="hashlabel">prev: H(C_N)</text>
    
    <!-- Timeline marker for N+1 -->
    <line x1="560" y1="85" x2="560" y2="95" stroke="#ddd" stroke-width="2"/>
    <text x="560" y="80" text-anchor="middle" class="timelabel">Tₙ₊₁</text>
    
    <!-- Continuation after -->
    <text x="660" y="40" font-family="Arial, sans-serif" font-size="24" fill="#888">⋯</text>
  </g>
  
  <!-- Expand arrow from Checkpoint N -->
  <line x1="525" y1="175" x2="525" y2="210" stroke="#4caf50" stroke-width="2" stroke-dasharray="4,2"/>
  <polygon points="525 220, 515 205, 535 205" fill="#4caf50"/>
  <text x="545" y="205" class="caption" fill="#4caf50">stages</text>
  
  <!-- Level label: Round Detail -->
  <text x="30" y="245" class="levellabel">ROUND DETAIL</text>
  
  <!-- Outer box: Checkpoint Round -->
  <rect x="15" y="230" width="1170" height="165" rx="10" fill="#fafafa" stroke="#ccc" stroke-width="1.5" stroke-dasharray="5,3"/>
  <text x="30" y="250" class="levellabel">CHECKPOINT ROUND</text>
  
  <!-- Stage 1: COMMIT (blue) -->
  <g transform="translate(50, 260)">
    <rect x="0" y="0" width="170" height="120" rx="8" fill="#f0f7ff" stroke="#4a90d9" stroke-width="2"/>
    <rect x="0" y="0" width="170" height="32" rx="8" fill="#4a90d9"/>
    <rect x="0" y="24" width="170" height="8" fill="#4a90d9"/>
    <text x="85" y="22" text-anchor="middle" class="stagename">COMMIT</text>
    <text x="85" y="52" text-anchor="middle" class="stagelabel">Collect pending</text>
    <text x="85" y="66" text-anchor="middle" class="stagelabel">operations</text>
    <text x="85" y="86" text-anchor="middle" class="caption" font-size="9">from local queues</text>
    <text x="85" y="108" text-anchor="middle" class="typelabel">(local)</text>
  </g>
  
  <!-- Arrow 1→2 -->
  <line x1="230" y1="320" x2="260" y2="320" stroke="#888" stroke-width="2" marker-end="url(#arrow)"/>
  
  <!-- Stage 2: SUBMIT (teal) -->
  <g transform="translate(270, 260)">
    <rect x="0" y="0" width="170" height="120" rx="8" fill="#f0fdfa" stroke="#14b8a6" stroke-width="2"/>
    <rect x="0" y="0" width="170" height="32" rx="8" fill="#14b8a6"/>
    <rect x="0" y="24" width="170" height="8" fill="#14b8a6"/>
    <text x="85" y="22" text-anchor="middle" class="stagename">SUBMIT</text>
    <text x="85" y="52" text-anchor="middle" class="stagelabel">Broadcast</text>
    <text x="85" y="66" text-anchor="middle" class="stagelabel">operations</text>
    <text x="85" y="86" text-anchor="middle" class="caption" font-size="9">to other writers</text>
    <text x="85" y="108" text-anchor="middle" class="typelabel">(network)</text>
  </g>
  
  <!-- Arrow 2→3 -->
  <line x1="450" y1="320" x2="480" y2="320" stroke="#888" stroke-width="2" marker-end="url(#arrow)"/>
  
  <!-- Stage 3: MERGE (amber) -->
  <g transform="translate(490, 260)">
    <rect x="0" y="0" width="170" height="120" rx="8" fill="#fffbeb" stroke="#f59e0b" stroke-width="2"/>
    <rect x="0" y="0" width="170" height="32" rx="8" fill="#f59e0b"/>
    <rect x="0" y="24" width="170" height="8" fill="#f59e0b"/>
    <text x="85" y="22" text-anchor="middle" class="stagename">MERGE</text>
    <text x="85" y="52" text-anchor="middle" class="stagelabel">Unify operations</text>
    <text x="85" y="66" text-anchor="middle" class="stagelabel">from all writers</text>
    <text x="85" y="86" text-anchor="middle" class="caption" font-size="9">into single set</text>
    <text x="85" y="108" text-anchor="middle" class="typelabel">(local)</text>
  </g>
  
  <!-- Arrow 3→4 -->
  <line x1="670" y1="320" x2="700" y2="320" stroke="#888" stroke-width="2" marker-end="url(#arrow)"/>
  
  <!-- Stage 4: COMPARE (orange) -->
  <g transform="translate(710, 260)">
    <rect x="0" y="0" width="170" height="120" rx="8" fill="#fff7ed" stroke="#f97316" stroke-width="2"/>
    <rect x="0" y="0" width="170" height="32" rx="8" fill="#f97316"/>
    <rect x="0" y="24" width="170" height="8" fill="#f97316"/>
    <text x="85" y="22" text-anchor="middle" class="stagename">COMPARE</text>
    <text x="85" y="52" text-anchor="middle" class="stagelabel">Verify all writers</text>
    <text x="85" y="66" text-anchor="middle" class="stagelabel">have same set</text>
    <text x="85" y="86" text-anchor="middle" class="caption" font-size="9">ensure agreement</text>
    <text x="85" y="108" text-anchor="middle" class="typelabel">(network)</text>
  </g>
  
  <!-- Arrow 4→5 -->
  <line x1="890" y1="320" x2="920" y2="320" stroke="#888" stroke-width="2" marker-end="url(#arrow)"/>
  
  <!-- Stage 5: SEAL (rose) -->
  <g transform="translate(930, 260)">
    <rect x="0" y="0" width="170" height="120" rx="8" fill="#fff1f2" stroke="#f43f5e" stroke-width="2"/>
    <rect x="0" y="0" width="170" height="32" rx="8" fill="#f43f5e"/>
    <rect x="0" y="24" width="170" height="8" fill="#f43f5e"/>
    <text x="85" y="22" text-anchor="middle" class="stagename">SEAL</text>
    <text x="85" y="52" text-anchor="middle" class="stagelabel">Sign checkpoint</text>
    <text x="85" y="66" text-anchor="middle" class="stagelabel">exchange sigs</text>
    <text x="85" y="86" text-anchor="middle" class="caption" font-size="9">finalize checkpoint</text>
    <text x="85" y="108" text-anchor="middle" class="typelabel">(network)</text>
  </g>
  
  <!-- Caption -->
  <text x="600" y="440" text-anchor="middle" class="caption">Each checkpoint round follows a five-stage consensus protocol, repeating at fixed intervals.</text>
</svg>
